<?xml version="1.0" standalone="no"?><svg xmlns="http://www.w3.org/2000/svg" viewBox="0 0 1440 320"><path fill="#0099ff" fill-opacity="1" d="M0,288L15,250.7C30,213,60,139,90,112C120,85,150,107,180,133.3C210,160,240,192,270,213.3C300,235,330,245,360,261.3C390,277,420,299,450,277.3C480,256,510,192,540,186.7C570,181,600,235,630,218.7C660,203,690,117,720,85.3C750,53,780,75,810,96C840,117,870,139,900,160C930,181,960,203,990,224C1020,245,1050,267,1080,250.7C1110,235,1140,181,1170,181.3C1200,181,1230,235,1260,224C1290,213,1320,139,1350,122.7C1380,107,1410,149,1425,170.7L1440,192L1440,320L1425,320C1410,320,1380,320,1350,320C1320,320,1290,320,1260,320C1230,320,1200,320,1170,320C1140,320,1110,320,1080,320C1050,320,1020,320,990,320C960,320,930,320,900,320C870,320,840,320,810,320C780,320,750,320,720,320C690,320,660,320,630,320C600,320,570,320,540,320C510,320,480,320,450,320C420,320,390,320,360,320C330,320,300,320,270,320C240,320,210,320,180,320C150,320,120,320,90,320C60,320,30,320,15,320L0,320Z"></path></svg>